<svg version="1.1" viewBox="0.0 0.0 118.501312335958 100.0" fill="none" stroke="none" stroke-linecap="square" stroke-miterlimit="10" xmlns:xlink="http://www.w3.org/1999/xlink" xmlns="http://www.w3.org/2000/svg">
  <clipPath id="p.0">
    <path d="m0 0l118.50131 0l0 100.0l-118.50131 0l0 -100.0z" clip-rule="nonzero"/>
  </clipPath>
  <g clip-path="url(#p.0)">
    <path fill="#4eb7c9" fill-opacity="0.0" d="m0 0l118.50131 0l0 100.0l-118.50131 0z" fill-rule="evenodd"/>
    <path fill="#4eb7c9" fill-opacity="0.0" d="m-8.0 0.24813884l150.48819 0l0 104.7874l-150.48819 0z" fill-rule="evenodd"/>
    <path fill="#4eb7c9" d="m37.5625 8.42939q4.4375 0 6.671875 1.265625q2.25 1.265625 2.25 4.859375q0 2.171875 -1.6875 3.609375q-1.6875 1.421875 -4.375 1.421875q-3.34375 0 -5.015625 0.578125q-1.671875 0.578125 -2.359375 1.65625q-0.671875 1.078125 -0.859375 3.203125q-0.21875 3.03125 -1.1875 10.109375l-0.21875 1.96875q-0.984375 7.703125 -5.09375 9.4375q2.46875 1.140625 2.46875 8.34375q0 0.796875 -0.15625 2.671875l-0.671875 4.59375q-0.875 6.40625 -1.015625 8.015625q-0.0625 0.453125 -0.0625 1.21875q0 2.203125 1.21875 3.03125q1.234375 0.8125 5.328125 0.8125q2.640625 0 4.34375 1.515625q1.71875 1.515625 1.71875 3.8125q0 3.109375 -2.375 4.578125q-2.359375 1.484375 -7.203125 1.484375q-7.953125 0 -11.890625 -3.890625q-3.921875 -3.890625 -3.921875 -10.828125q0 -2.09375 0.15625 -3.1875q0.21875 -1.984375 0.46875 -3.703125q0.265625 -1.734375 0.421875 -3.171875l0.65625 -5.3125q0.046875 -0.359375 0.046875 -1.046875q0 -1.71875 -1.0625 -2.484375q-1.046875 -0.765625 -3.9375 -0.765625q-2.765625 0 -4.1875 -1.984375q-1.40625 -1.984375 -1.125 -4.5625q0.6875 -5.21875 5.96875 -5.21875q3.5625 0 5.140625 -1.109375q1.59375 -1.109375 2.015625 -4.0625q0.0625 -0.34375 1.09375 -8.65625l0.4375 -3.90625q0.96875 -7.171875 5.71875 -10.734375q4.75 -3.5625 12.28125 -3.5625z" fill-rule="nonzero"/>
    <path fill="#4eb7c9" d="m110.141815 40.538765q2.765625 0 4.1875 1.984375q1.4375 1.984375 1.125 4.5625q-0.671875 5.21875 -5.96875 5.21875q-3.5625 0 -5.15625 1.109375q-1.578125 1.109375 -2.0 4.015625q-0.4375 3.359375 -1.390625 11.359375l-0.4375 3.515625q-0.953125 7.171875 -5.703125 10.734375q-4.75 3.578125 -12.296875 3.578125q-4.4375 0 -6.671875 -1.265625q-2.25 -1.265625 -2.25 -4.875q0 -2.171875 1.6875 -3.59375q1.6875 -1.4375 4.375 -1.4375q3.34375 0 5.015625 -0.5625q1.6875 -0.578125 2.359375 -1.65625q0.671875 -1.09375 0.859375 -3.21875q0.296875 -4.203125 1.421875 -11.859375l0.28125 -2.5q1.0 -7.6875 5.109375 -9.421875q-2.484375 -1.15625 -2.484375 -8.34375q0 -0.796875 0.171875 -2.671875q0.515625 -4.0 0.59375 -4.234375q0.578125 -3.78125 0.796875 -6.09375q0.046875 -0.453125 0.046875 -1.234375q0 -2.1875 -1.234375 -3.0q-1.21875 -0.828125 -5.3125 -0.828125q-2.625 0 -4.34375 -1.515625q-1.71875 -1.515625 -1.71875 -3.828125q0 -3.109375 2.375 -4.578125q2.375 -1.46875 7.21875 -1.46875q7.953125 0 11.875 3.890625q3.9375 3.890625 3.9375 10.8125q0 2.09375 -0.171875 3.203125q-0.140625 1.515625 -0.65625 5.421875q-0.078125 0.65625 -0.59375 4.484375q-0.046875 0.34375 -0.046875 1.046875q0 1.71875 1.0625 2.484375q1.0625 0.765625 3.9375 0.765625z" fill-rule="nonzero"/>
    <path fill="#4eb7c9" fill-opacity="0.0" d="m31.198841 -6.4987288l55.086613 0l0 95.842514l-55.086613 0z" fill-rule="evenodd"/>
    <path fill="#4eb7c9" d="m56.276966 32.738766q-2.875 0 -5.4375 0.71875q-2.5625 0.71875 -5.6875 2.328125l-3.359375 -9.046873q3.125 -2.0 7.359375 -3.078125q4.25 -1.078125 8.328125 -1.078125q5.125 0 8.437496 1.359375q3.328125 1.359375 5.234375 3.4375q1.921875 2.078125 2.6875 4.5625q0.765625 2.484373 0.765625 4.718748q0 2.234375 -0.6875 4.125q-0.671875 1.875 -1.71875 3.484375q-1.046875 1.59375 -2.40625 3.03125q-1.359375 1.4375 -2.640625 2.71875q-0.953125 0.96875 -2.0 2.046875q-1.03125 1.078125 -1.8749962 2.28125q-0.84375 1.1875 -1.40625 2.515625q-0.546875 1.3125 -0.546875 2.671875q0 0.328125 0 0.96875q0 0.640625 0.078125 1.109375l-10.5625 0q-0.15625 -0.796875 -0.203125 -1.796875q-0.03125 -1.0 -0.03125 -1.71875q0 -2.234375 0.546875 -4.03125q0.5625 -1.8125 1.484375 -3.359375q0.921875 -1.5625 2.125 -2.921875q1.203125 -1.359375 2.484375 -2.640625q1.828125 -1.84375 3.34375 -3.640625q1.53125 -1.796875 1.53125 -4.125q0 -1.921875 -1.484375 -3.28125q-1.484375 -1.359375 -4.359375 -1.359375zm7.4375 40.250004q0 3.515625 -2.28125 5.4375q-2.28125 1.921875 -5.15625 1.921875q-2.875 0 -5.15625 -1.921875q-2.28125 -1.921875 -2.28125 -5.4375q0 -3.53125 2.28125 -5.453125q2.28125 -1.921875 5.15625 -1.921875q2.875 0 5.15625 1.921875q2.28125 1.921875 2.28125 5.453125z" fill-rule="nonzero"/>
  </g>
</svg>