<svg version="1.1" viewBox="0.0 0.0 139.59317585301838 136.1496062992126" fill="none" stroke="none" stroke-linecap="square" stroke-miterlimit="10" xmlns:xlink="http://www.w3.org/1999/xlink" xmlns="http://www.w3.org/2000/svg"><clipPath id="p.0"><path d="m0 0l139.59317 0l0 136.14961l-139.59317 0l0 -136.14961z" clip-rule="nonzero"/></clipPath><g clip-path="url(#p.0)"><path fill="#000000" fill-opacity="0.0" d="m0 0l139.59317 0l0 136.14961l-139.59317 0z" fill-rule="evenodd"/><g filter="url(#shadowFilter-p.1)"><use xlink:href="#p.1" transform="matrix(1.0 0.0 0.0 1.0 0.0 2.0)"/></g><defs><filter id="shadowFilter-p.1" filterUnits="userSpaceOnUse"><feGaussianBlur in="SourceAlpha" stdDeviation="2.0" result="blur"/><feComponentTransfer in="blur" color-interpolation-filters="sRGB"><feFuncR type="linear" slope="0" intercept="0.0"/><feFuncG type="linear" slope="0" intercept="0.0"/><feFuncB type="linear" slope="0" intercept="0.0"/><feFuncA type="linear" slope="0.5" intercept="0"/></feComponentTransfer></filter></defs><g id="p.1"><path fill="#efefef" d="m17.137472 25.949774l0 0c0.47076035 -5.383209 5.216339 -9.365536 10.599548 -8.894775l88.79519 7.7651215c2.585106 0.2260685 4.974533 1.4698067 6.642624 3.4576073c1.6680908 1.9878006 2.478218 4.5568333 2.2521515 7.141943l-5.416855 61.942398c-0.47075653 5.383209 -5.216339 9.36554 -10.599548 8.894775l-88.79519 -7.7651215c-5.3832083 -0.47075653 -9.365534 -5.216339 -8.8947735 -10.599548z" fill-rule="evenodd"/><path stroke="#efefef" stroke-width="1.0" stroke-linejoin="round" stroke-linecap="butt" d="m17.137472 25.949774l0 0c0.47076035 -5.383209 5.216339 -9.365536 10.599548 -8.894775l88.79519 7.7651215c2.585106 0.2260685 4.974533 1.4698067 6.642624 3.4576073c1.6680908 1.9878006 2.478218 4.5568333 2.2521515 7.141943l-5.416855 61.942398c-0.47075653 5.383209 -5.216339 9.36554 -10.599548 8.894775l-88.79519 -7.7651215c-5.3832083 -0.47075653 -9.365534 -5.216339 -8.8947735 -10.599548z" fill-rule="evenodd"/></g><path fill="#000000" fill-opacity="0.0" d="m9.257868 8.398005l136.39778 11.912855l-8.286911 94.88209l-136.39778 -11.912849z" fill-rule="evenodd"/><path fill="#4eb7c9" d="m51.955853 20.374731q4.1716194 0.36434555 6.183876 1.7478008q2.0136223 1.3678875 1.7172508 4.761219q-0.1794548 2.0546799 -1.8854332 3.2702293q-1.7046242 1.1999855 -4.2418404 0.97838783q-3.1442795 -0.27461815 -4.7795677 0.1315136q-1.6183624 0.3919258 -2.3462868 1.3635254q-0.7265625 0.9560356 -1.0718002 2.9334946q-0.46942902 2.86063 -1.9527473 9.428352l-0.36413193 1.834652q-1.5830383 7.1707077 -5.5705223 8.469315q2.2254906 1.2765999 1.6327515 8.063263q-0.06661606 0.76272583 -0.37589645 2.5080566l-0.99921036 4.257332q-1.3524704 5.967453 -1.6257935 7.4806595q-0.10032654 0.43040466 -0.16286469 1.146431q-0.18081284 2.0702438 0.9030762 2.9491348q1.1008186 0.86468506 4.9455566 1.2004776q2.4905205 0.21752167 3.9842834 1.7909546q1.495121 1.557869 1.3061523 3.7215118q-0.25694656 2.941925 -2.6194077 4.131508q-2.363823 1.2051468 -6.9090195 0.80817413q-7.5026875 -0.65527344 -10.886494 -4.6523514q-3.3838062 -3.997078 -2.8141766 -10.519119q0.1726551 -1.9768524 0.41939926 -3.0061646q0.36549377 -1.8502121 0.7545738 -3.4317322q0.39044 -1.597084 0.6346016 -2.9559937l1.0631065 -4.988926q0.090810776 -0.32144165 0.1451912 -0.9440727q0.14138794 -1.6188354 -0.807848 -2.4232292q-0.93367195 -0.8030319 -3.6421108 -1.0395813q-2.5994797 -0.22703934 -3.774994 -2.2118454q-1.1755142 -1.9848061 -0.6988163 -4.38995q1.0677967 -4.8630333 6.0644016 -4.4266357q3.346634 0.29228973 4.9320316 -0.6201019q1.5853977 -0.91239166 2.2219696 -3.7113724q0.106378555 -0.3200798 1.7525635 -8.034229l0.7397537 -3.6212463q1.492836 -6.6766815 6.2538567 -9.648706q4.761017 -2.972025 11.874565 -2.3507347z" fill-rule="nonzero"/><path fill="#4eb7c9" d="m117.674 56.589443q2.5994797 0.22703552 3.774994 2.2118416q1.1755142 1.9848061 0.6988144 4.38995q-1.0677948 4.8630333 -6.0643997 4.4266396q-3.346634 -0.29229736 -4.9320297 0.6201019q-1.5853958 0.91239166 -2.2151718 3.6335373q-0.6962509 3.1231384 -2.2556992 10.562546l-0.6956482 3.295723q-1.5070343 6.6597595 -6.268059 9.631783q-4.762375 2.987587 -11.875923 2.3662949q-4.1716156 -0.36434174 -6.183876 -1.7477951q-2.0122604 -1.3834534 -1.715889 -4.776787q0.17945099 -2.0546799 1.8996353 -3.2533035q1.705986 -1.2155533 4.2276382 -0.99531555q3.1598434 0.2759781 4.778206 -0.11594391q1.6197205 -0.4074936 2.346283 -1.3635254q0.72792816 -0.9716034 1.0731659 -2.9490585q0.628212 -3.9603653 2.3161316 -11.07486l0.46853638 -2.3117447q1.5816803 -7.1551437 5.584732 -8.452393q-2.2397003 -1.2935257 -1.6469574 -8.080193q0.06525421 -0.74715424 0.3745346 -2.4924889q0.82710266 -3.723404 0.92396545 -3.9345284q0.8392029 -3.5027657 1.2359619 -5.7109947q0.09761047 -0.39927292 0.16150665 -1.1308632q0.18081665 -2.0702438 -0.9200058 -2.934925q-1.0838852 -0.878891 -4.928627 -1.2146873q-2.4749527 -0.21615982 -3.9700775 -1.7740288q-1.4937592 -1.5734386 -1.3047943 -3.7370758q0.25695038 -2.941927 2.6194077 -4.13151q2.362465 -1.1895828 6.9076614 -0.79261017q7.4871216 0.6539173 10.870926 4.6509953q3.38517 3.9815102 2.8155365 10.503555q-0.1726532 1.9768524 -0.4180374 2.990593q-0.26516724 1.4198151 -1.0699005 5.0667534q-0.11528778 0.60162354 -0.917305 4.21743q-0.08945465 0.3058777 -0.145195 0.9440727q-0.14002228 1.6032715 0.7922821 2.4218674q0.94924164 0.80439377 3.6576767 1.040947z" fill-rule="nonzero"/><path fill="#000000" fill-opacity="0.0" d="m45.320034 5.391938l49.928783 4.360733l-7.5795135 86.782745l-49.928787 -4.360733z" fill-rule="evenodd"/><path fill="#4eb7c9" d="m66.226776 45.08715q-2.7240028 -0.23791122 -5.212078 0.23490143q-2.4880753 0.47280884 -5.5618706 1.7257423l-2.4432564 -8.839855q3.121994 -1.6251526 7.22768 -2.3017387q4.10569 -0.67658997 7.965996 -0.33943558q4.8409424 0.4228058 7.872383 1.9893799q3.0314484 1.5665741 4.6644135 3.701126q1.6498947 2.120346 2.160637 4.53331q0.5276642 2.398758 0.34277344 4.5156975q-0.18624878 2.1325073 -0.9949951 3.849903q-0.79317474 1.7187576 -1.922615 3.1571922q-1.1125107 1.4242287 -2.5241013 2.6811752q-1.3946686 1.2427406 -2.7148361 2.35083q-0.98166656 0.82395935 -2.067604 1.7642937q-1.0690079 0.9261246 -1.9621048 1.9930878q-0.8930893 1.0669632 -1.5324478 2.2815704q-0.63799286 1.1990356 -0.7508316 2.4909897q-0.02583313 0.29575348 -0.07884979 0.9028168q-0.053024292 0.6070633 -0.01461792 1.0652618l-9.99321 -0.8727951q-0.08904266 -0.7763138 -0.0541687 -1.7143402q0.05179596 -0.95222473 0.11161423 -1.6371231q0.18489075 -2.1169357 0.8623123 -3.7673798q0.6787796 -1.6660118 1.679615 -3.0686264q1.0008316 -1.4026108 2.2486115 -2.5797615q1.2491379 -1.1927109 2.5693054 -2.3008003q1.8956299 -1.5910988 3.4758606 -3.1626892q1.5971603 -1.5858002 1.7888489 -3.780571q0.15769958 -1.8056259 -1.1303787 -3.2199364q-1.2880783 -1.4143105 -4.012085 -1.6522255zm3.7090302 38.703873q-0.2909317 3.33107 -2.6136322 4.9632874q-2.3057709 1.6180191 -5.0297775 1.3801041q-2.7240067 -0.23790741 -4.7299423 -2.2325058q-2.0045776 -2.0101624 -1.7136459 -5.3412323q0.2909317 -3.33107 2.6136322 -4.963295q2.3227005 -1.6322174 5.0467033 -1.39431q2.7240028 0.23791504 4.7130165 2.2467194q2.0045776 2.0101624 1.7136459 5.3412323z" fill-rule="nonzero"/><g filter="url(#shadowFilter-p.2)"><use xlink:href="#p.2" transform="matrix(1.0 0.0 0.0 1.0 0.0 2.0)"/></g><defs><filter id="shadowFilter-p.2" filterUnits="userSpaceOnUse"><feGaussianBlur in="SourceAlpha" stdDeviation="2.0" result="blur"/><feComponentTransfer in="blur" color-interpolation-filters="sRGB"><feFuncR type="linear" slope="0" intercept="0.0"/><feFuncG type="linear" slope="0" intercept="0.0"/><feFuncB type="linear" slope="0" intercept="0.0"/><feFuncA type="linear" slope="0.5" intercept="0"/></feComponentTransfer></filter></defs><g id="p.2"><path fill="#efefef" d="m9.049149 43.51286l0 0c-0.9377384 -5.3194313 2.6143265 -10.391869 7.933758 -11.329605l87.743195 -15.467836c2.5544815 -0.45031738 5.1832275 0.13257217 7.3079376 1.6204395c2.1247177 1.4878693 3.57135 3.7588367 4.0216675 6.3133183l10.790169 61.20854c0.9377365 5.319435 -2.6143265 10.391869 -7.9337616 11.329613l-87.743195 15.467834c-5.3194313 0.9377365 -10.391869 -2.6143265 -11.329607 -7.9337616z" fill-rule="evenodd"/><path stroke="#efefef" stroke-width="1.0" stroke-linejoin="round" stroke-linecap="butt" d="m9.049149 43.51286l0 0c-0.9377384 -5.3194313 2.6143265 -10.391869 7.933758 -11.329605l87.743195 -15.467836c2.5544815 -0.45031738 5.1832275 0.13257217 7.3079376 1.6204395c2.1247177 1.4878693 3.57135 3.7588367 4.0216675 6.3133183l10.790169 61.20854c0.9377365 5.319435 -2.6143265 10.391869 -7.9337616 11.329613l-87.743195 15.467834c-5.3194313 0.9377365 -10.391869 -2.6143265 -11.329607 -7.9337616z" fill-rule="evenodd"/></g><path fill="#000000" fill-opacity="0.0" d="m-3.0983477 28.603933l134.77792 -23.77464l16.5383 93.755264l-134.77792 23.774643z" fill-rule="evenodd"/><path fill="#4eb7c9" d="m41.244503 29.125015q4.123829 -0.7274399 6.4255257 0.08824539q2.298977 0.8002968 2.8907013 4.1547585q0.3582878 2.0311394 -0.9750824 3.6467056q-1.3360863 1.6001816 -3.8442383 2.0426178q-3.108261 0.54829025 -4.582779 1.3637123q-1.4618416 0.7973175 -1.9135818 1.9241753q-0.4544525 1.1114731 -0.27628326 3.11092q0.2867279 2.884678 0.55327225 9.612541l0.12296677 1.8663902q0.32624054 7.3361206 -3.1894493 9.622238q2.4800148 0.6572952 3.6634598 7.3662186q0.13300323 0.75398254 0.2858467 2.519905l0.13637161 4.3708878q0.2376213 6.114189 0.365139 7.6465836q0.014450073 0.4417038 0.13930893 1.1495285q0.3610077 2.046524 1.6353912 2.615036q1.2870598 0.55041504 5.087757 -0.120025635q2.4619904 -0.43428802 4.3120003 0.69906616q1.8472939 1.1179657 2.2245865 3.2568207q0.5130081 2.9082184 -1.4612083 4.668564q-1.9715004 1.775734 -6.46463 2.5683136q-7.416744 1.3083038 -11.719532 -1.677124q-4.3027897 -2.9854202 -5.440092 -9.4327545q-0.34471893 -1.9542084 -0.37270355 -3.0123062q-0.12568283 -1.8817749 -0.15905952 -3.5101166q-0.03609085 -1.6437225 -0.15185165 -3.0195312l-0.26394272 -5.094101q0.0045490265 -0.333992 -0.10402489 -0.9494858q-0.2822895 -1.600296 -1.4073315 -2.1316833q-1.1096554 -0.5341034 -3.7870674 -0.061813354q-2.5697021 0.45329285 -4.2187405 -1.1597672q-1.6490364 -1.61306 -1.8108864 -4.0596466q-0.22684097 -4.9737167 4.7125244 -5.8450127q3.308298 -0.58358 4.603632 -1.8751106q1.2953339 -1.2915344 1.1860142 -4.1599045q0.019935608 -0.33670807 -0.38591957 -8.2141l-0.22240448 -3.6893349q-0.28554535 -6.835575 3.5443535 -10.938271q3.8298988 -4.1026955 10.861958 -5.3431396z" fill-rule="nonzero"/><path fill="#4eb7c9" d="m114.095 47.102383q2.5697021 -0.45329285 4.2187424 1.1597672q1.6490326 1.61306 1.8108826 4.059643q0.22684479 4.9737167 -4.7125244 5.8450127q-3.3082962 0.58358 -4.60363 1.8751144q-1.2953339 1.2915306 -1.199585 4.082966q0.13554382 3.1969376 0.5540924 10.786499l0.18079376 3.3634796q0.2674408 6.8229065 -3.5624542 10.925598q-3.8271866 4.11808 -10.859245 5.358528q-4.1238327 0.7274399 -6.425522 -0.08824921q-2.3016968 -0.81568146 -2.8934174 -4.170143q-0.35829163 -2.0311356 0.9931793 -3.6340332q1.333374 -1.6155701 3.8261414 -2.0552902q3.1236496 -0.5510025 4.5854874 -1.3483276q1.4591293 -0.812706 1.9135895 -1.9241714q0.45173645 -1.1268616 0.2735672 -3.1263123q-0.41789246 -3.988037 -0.62828064 -11.296989l-0.14556122 -2.3542633q-0.3235321 -7.3207283 3.20755 -9.609558q-2.4981155 -0.66997147 -3.6815643 -7.378895q-0.13028717 -0.73859406 -0.28312683 -2.5045204q-0.16447449 -3.8106155 -0.12553406 -4.039612q-0.095695496 -3.6006203 -0.28380585 -5.8363075q-0.009025574 -0.41093063 -0.13659668 -1.13414q-0.3610077 -2.0465317 -1.6480637 -2.596941q-1.2743835 -0.56851196 -5.075081 0.1019268q-2.4466019 0.43157768 -4.2938995 -0.6863899q-1.8500137 -1.1333542 -2.2273026 -3.2722073q-0.5130081 -2.908224 1.4612122 -4.6685696q1.9742126 -1.7603436 6.467346 -2.552925q7.401352 -1.3055897 11.70414 1.6798363q4.3000793 2.9700394 5.437378 9.417372q0.34471893 1.9542065 0.3699875 2.9969196q0.11123657 1.4400711 0.27751923 5.171036q0.044303894 0.61096954 0.20516205 4.311157q-0.0072631836 0.31860733 0.104026794 0.9494934q0.27957153 1.5849037 1.3919449 2.1343956q1.1250381 0.53139114 3.802452 0.059101105z" fill-rule="nonzero"/><path fill="#000000" fill-opacity="0.0" d="m30.943476 16.374617l49.33583 -8.702772l15.126564 85.75211l-49.33583 8.702766z" fill-rule="evenodd"/><path fill="#4eb7c9" d="m61.40912 49.30859q-2.6928024 0.4750061 -4.973812 1.575489q-2.2810097 1.100483 -4.9259453 3.1060677l-4.6473007 -7.9066505q2.5951805 -2.3776016 6.38599 -4.093464q3.7908134 -1.7158661 7.6068993 -2.389019q4.785492 -0.84415436 8.119041 -0.115291595q3.3335495 0.7288666 5.463211 2.368206q2.142334 1.6212425 3.2600174 3.8198853q1.1303558 2.180542 1.4995041 4.2732315q0.37186432 2.108078 0.03502655 3.9762497q-0.32144928 1.8654518 -1.040245 3.5471382q-0.7061157 1.6635818 -1.7444153 3.2429657q-1.0256271 1.5612831 -2.0141296 2.973217q-0.73503876 1.0499039 -1.5406876 2.2391891q-0.7929764 1.1711884 -1.3795929 2.4328995q-0.5866089 1.2617111 -0.8899231 2.60038q-0.30603027 1.3232803 -0.08073425 2.600441q0.051567078 0.2923584 0.15742493 0.8924713q0.10585785 0.6001053 0.26151276 1.0327759l-9.878731 1.7425919q-0.28687668 -0.7268448 -0.4958992 -1.6419449q-0.19634628 -0.93320465 -0.31577682 -1.6102524q-0.36914825 -2.0926895 -0.14183807 -3.8622055q0.22459793 -1.7849045 0.828434 -3.3987122q0.60383606 -1.6138077 1.5045433 -3.0737228q0.8979912 -1.4753036 1.8864975 -2.8872414q1.4193878 -2.0273972 2.5391693 -3.954342q1.1324539 -1.9450531 0.749733 -4.1146774q-0.31485748 -1.7849426 -1.9250183 -2.81781q-1.6101532 -1.0328712 -4.3029556 -0.55786514zm13.597069 36.426174q0.58086395 3.2929077 -1.2404099 5.4705353q-1.808609 2.1595154 -4.5014114 2.6345215q-2.6927948 0.4750061 -5.146515 -0.9326477q-2.4564247 -1.4230347 -3.0372925 -4.71595q-0.58086395 -3.2929077 1.2404137 -5.4705276q1.8212776 -2.17762 4.51408 -2.652626q2.6927948 -0.4750061 5.1338425 0.9507446q2.4564285 1.4230423 3.0372925 4.71595z" fill-rule="nonzero"/><g filter="url(#shadowFilter-p.3)"><use xlink:href="#p.3" transform="matrix(1.0 0.0 0.0 1.0 0.0 2.0)"/></g><defs><filter id="shadowFilter-p.3" filterUnits="userSpaceOnUse"><feGaussianBlur in="SourceAlpha" stdDeviation="2.0" result="blur"/><feComponentTransfer in="blur" color-interpolation-filters="sRGB"><feFuncR type="linear" slope="0" intercept="0.0"/><feFuncG type="linear" slope="0" intercept="0.0"/><feFuncB type="linear" slope="0" intercept="0.0"/><feFuncA type="linear" slope="0.5" intercept="0"/></feComponentTransfer></filter></defs><g id="p.3"><path fill="#efefef" d="m6.816213 67.714355l0 0c-2.5354052 -4.769764 -0.72410154 -10.691769 4.0456586 -13.227177l78.67646 -41.821106c2.2905197 -1.2175446 4.970894 -1.4753151 7.4514694 -0.7166071c2.4805756 0.758708 4.558159 2.4717464 5.7757034 4.762267l29.173874 54.883705c2.5354156 4.76976 0.72410583 10.691765 -4.0456543 13.227173l-78.67646 41.821106c-4.76976 2.535408 -10.691769 0.72410583 -13.227173 -4.045662z" fill-rule="evenodd"/><path stroke="#efefef" stroke-width="1.0" stroke-linejoin="round" stroke-linecap="butt" d="m6.816213 67.714355l0 0c-2.5354052 -4.769764 -0.72410154 -10.691769 4.0456586 -13.227177l78.67646 -41.821106c2.2905197 -1.2175446 4.970894 -1.4753151 7.4514694 -0.7166071c2.4805756 0.758708 4.558159 2.4717464 5.7757034 4.762267l29.173874 54.883705c2.5354156 4.76976 0.72410583 10.691765 -4.0456543 13.227173l-78.67646 41.821106c-4.76976 2.535408 -10.691769 0.72410583 -13.227173 -4.045662z" fill-rule="evenodd"/></g><path fill="#000000" fill-opacity="0.0" d="m-9.343928 57.28708l120.84624 -64.25383l44.696754 84.064l-120.84624 64.25382z" fill-rule="evenodd"/><path fill="#4eb7c9" d="m32.990673 44.08325q3.697361 -1.9658813 6.1384583 -1.9011955q2.4337578 0.05089569 4.0328712 3.0584488q0.96827316 1.8210869 0.19924545 3.769558q-0.77635956 1.9346733 -3.0251274 3.1303406q-2.7868156 1.4817467 -3.9372787 2.7128181q-1.1440048 1.2099419 -1.2255096 2.421238q-0.0888443 1.1974983 0.6983299 3.0440903q1.1638985 2.654976 3.4959335 8.971371l0.69356155 1.7370987q2.576725 6.876442 -0.060699463 10.136879q2.56176 -0.14104462 5.759987 5.8740616q0.35943604 0.67601013 1.0503731 2.3083267l1.4800568 4.114937q2.114933 5.7416687 2.7096367 7.159706q0.1502037 0.41563416 0.48763275 1.0502548q0.975605 1.8348846 2.3632889 1.9818726q1.3941422 0.12585449 4.8017807 -1.6859818q2.2073784 -1.1736603 4.317032 -0.66729736q2.1023178 0.49256134 3.121933 2.410225q1.386383 2.6074677 0.052597046 4.891617q-1.3264618 2.297943 -5.3549232 4.4398727q-6.649727 3.5356522 -11.664352 2.025589q-5.0146294 -1.5100632 -8.088154 -7.290634q-0.93159103 -1.7521057 -1.2851028 -2.7498016q-0.7008972 -1.7508926 -1.2357025 -3.2892532q-0.54214096 -1.5521622 -1.0772858 -2.8249054l-1.8248215 -4.763359q-0.09885788 -0.31906128 -0.39227295 -0.870903q-0.7628784 -1.4347992 -1.997055 -1.5926132q-1.2203789 -0.16516113 -3.620903 1.1111984q-2.3039513 1.2250061 -4.3706627 0.20031738q-2.0667114 -1.0246964 -2.9764977 -3.30159q-1.7523403 -4.660324 2.6762123 -7.0149765q2.9661655 -1.5771103 3.7991219 -3.2056427q0.8329563 -1.62854 -0.15718079 -4.322815q-0.08506203 -0.32640076 -2.9047298 -7.6930466l-1.3513203 -3.4401398q-2.383381 -6.4129677 -0.008338928 -11.49818q2.3750439 -5.0852165 8.679867 -8.437485z" fill-rule="nonzero"/><path fill="#4eb7c9" d="m107.83135 38.674503q2.3039474 -1.2250099 4.370659 -0.20031738q2.0667114 1.0246925 2.9765015 3.3015862q1.7523346 4.660324 -2.6762161 7.0149803q-2.9661636 1.5771065 -3.799118 3.2056427q-0.83296204 1.6285362 0.12049866 4.253834q1.1165924 2.9986687 3.8594055 10.0876465l1.2110748 3.1430817q2.3622513 6.4065094 -0.012794495 11.491722q-2.3677063 5.0990143 -8.672531 8.451279q-3.6973572 1.965889 -6.1384583 1.9011993q-2.4410934 -0.064689636 -4.040207 -3.0722427q-0.96826935 -1.8210907 -0.17811584 -3.7630997q0.7690277 -1.9484711 3.0039978 -3.1368027q2.8006134 -1.4890823 3.9446182 -2.6990204q1.1366653 -1.2237396 1.2255096 -2.4212418q0.08150482 -1.2112885 -0.7056656 -3.0578842q-1.6295319 -3.6638412 -4.087677 -10.550247l-0.86577606 -2.1941185q-2.5693893 -6.862652 0.081832886 -10.130421q-2.5828934 0.1345787 -5.7811203 -5.8805275q-0.35209656 -0.6622124 -1.0430374 -2.2945251q-1.3336868 -3.5733948 -1.3674011 -3.803215q-1.2033997 -3.3949165 -2.0730057 -5.4631233q-0.1355362 -0.38803864 -0.4803009 -1.0364571q-0.9756012 -1.8348827 -2.3697433 -1.9607391q-1.3876877 -0.14698792 -4.795326 1.6648521q-2.1935806 1.1663246 -4.2958984 0.67375946q-2.1096497 -0.5063648 -3.1292725 -2.4240246q-1.386383 -2.6074657 -0.052589417 -4.891615q1.333786 -2.2841492 5.3622513 -4.4260807q6.635933 -3.5283184 11.650558 -2.0182552q5.0072937 1.4962654 8.080818 7.2768383q0.93159485 1.7521057 1.277771 2.7360039q0.5506897 1.3352604 1.861496 4.8323383q0.230896 0.56739044 1.527031 4.036873q0.09152222 0.30526352 0.39227295 0.870903q0.75553894 1.4210014 1.9832535 1.5999527q1.2341766 0.15782166 3.6347046 -1.1185341z" fill-rule="nonzero"/><path fill="#000000" fill-opacity="0.0" d="m19.255985 35.137814l44.2361 -23.52029l40.881344 76.888115l-44.2361 23.520287z" fill-rule="evenodd"/><path fill="#4eb7c9" d="m58.40599 57.048523q-2.414322 1.2836914 -4.243759 3.035038q-1.8294373 1.7513504 -3.7253685 4.4759636l-6.862667 -6.084114q1.7336807 -3.0630531 4.8089447 -5.866123q3.075264 -2.803074 6.4967003 -4.622246q4.290592 -2.2813034 7.686241 -2.6179733q3.3956566 -0.33666992 5.927593 0.56453323q2.5384064 0.88006973 4.28067 2.6258545q1.7487259 1.7246552 2.746338 3.6009254q1.0049438 1.890068 1.2617416 3.7709122q0.27059937 1.8735085 0.10651398 3.694992q-0.15762329 1.8003502 -0.6571884 3.6232452q-0.49310303 1.8017616 -0.9970398 3.4500237q-0.37472534 1.2256241 -0.7735367 2.605629q-0.39235687 1.3588791 -0.5604782 2.740097q-0.16812134 1.3812256 -0.043022156 2.7481155q0.117767334 1.3530884 0.72660065 2.498169q0.13937378 0.2621231 0.4254532 0.8001709q0.2860794 0.5380478 0.5677872 0.90145874l-8.857109 4.70932q-0.49739075 -0.60266113 -0.9789047 -1.4084167q-0.47505188 -0.82689667 -0.7978058 -1.4339218q-0.997612 -1.8762741 -1.3281021 -3.6294556q-0.33782578 -1.7669754 -0.26210403 -3.488388q0.07572174 -1.7214127 0.4813385 -3.388176q0.3982811 -1.6805573 0.90221786 -3.3288193q0.7236023 -2.366722 1.1932831 -4.5453568q0.4761505 -2.1997604 -0.5581436 -4.1450157q-0.85089874 -1.6003494 -2.7013893 -2.0852394q-1.8504868 -0.4848938 -4.264805 0.7987976zm24.185524 30.443497q1.5697708 2.9523697 0.5103531 5.586136q-1.0529633 2.6126328 -3.4672775 3.8963242q-2.414322 1.2836914 -5.182884 0.70295715q-2.7759018 -0.5945282 -4.3456726 -3.5468903q-1.5697708 -2.9523697 -0.5103531 -5.586136q1.0594177 -2.6337662 3.4737396 -3.9174576q2.414322 -1.2836914 5.176422 -0.68182373q2.7759018 0.5945282 4.3456726 3.5468903z" fill-rule="nonzero"/><g filter="url(#shadowFilter-p.4)"><use xlink:href="#p.4" transform="matrix(1.0 0.0 0.0 1.0 0.0 2.0)"/></g><defs><filter id="shadowFilter-p.4" filterUnits="userSpaceOnUse"><feGaussianBlur in="SourceAlpha" stdDeviation="2.0" result="blur"/><feComponentTransfer in="blur" color-interpolation-filters="sRGB"><feFuncR type="linear" slope="0" intercept="0.0"/><feFuncG type="linear" slope="0" intercept="0.0"/><feFuncB type="linear" slope="0" intercept="0.0"/><feFuncA type="linear" slope="0.5" intercept="0"/></feComponentTransfer></filter></defs><g id="p.4"><path fill="#efefef" d="m10.892388 38.02124l0 0c0 -5.388172 4.367976 -9.756149 9.756148 -9.756149l89.149124 0c2.5874863 0 5.0690002 1.0278778 6.898636 2.8575115c1.8296356 1.8296337 2.8575058 4.3111477 2.8575058 6.898638l0 61.99951c0 5.388176 -4.3679733 9.756149 -9.756142 9.756149l-89.149124 0l0 0c-5.388172 0 -9.756148 -4.3679733 -9.756148 -9.756149z" fill-rule="evenodd"/><path stroke="#efefef" stroke-width="1.0" stroke-linejoin="round" stroke-linecap="butt" d="m10.892388 38.02124l0 0c0 -5.388172 4.367976 -9.756149 9.756148 -9.756149l89.149124 0c2.5874863 0 5.0690002 1.0278778 6.898636 2.8575115c1.8296356 1.8296337 2.8575058 4.3111477 2.8575058 6.898638l0 61.99951c0 5.388176 -4.3679733 9.756149 -9.756142 9.756149l-89.149124 0l0 0c-5.388172 0 -9.756148 -4.3679733 -9.756148 -9.756149z" fill-rule="evenodd"/></g><path fill="#000000" fill-opacity="0.0" d="m1.5180689 23.939663l136.85396 -0.015048981l0.010482788 94.057175l-136.85396 0.015045166z" fill-rule="evenodd"/><path fill="#4eb7c9" d="m45.09711 32.15112q4.1875 -4.6157837E-4 6.3126335 1.2024307q2.1251297 1.1872673 2.1255112 4.5935173q2.2888184E-4 2.0625 -1.5933685 3.4220505q-1.5936012 1.3439217 -4.140476 1.344204q-3.15625 3.4713745E-4 -4.749939 0.5473976q-1.578064 0.53142166 -2.2185745 1.5627441q-0.6405144 1.0156937 -0.8121643 3.0157127q-0.21842957 2.890648 -1.1239357 9.562626l-0.202919 1.8593941q-0.95231247 7.281353 -4.8115044 8.922405q2.3282433 1.0778732 2.3290024 7.890373q8.773804E-5 0.765625 -0.15596771 2.5312653l-0.62451553 4.3281937q-0.8274498 6.0625916 -0.96790695 7.593857q-0.06245041 0.43750763 -0.0623703 1.1562576q2.3269653E-4 2.078125 1.1565704 2.8592453q1.1719589 0.7654953 5.031334 0.76506805q2.5 -2.746582E-4 4.12516 1.4370499q1.6251602 1.4216995 1.6254005 3.5935745q3.2806396E-4 2.953125 -2.2495155 4.343994q-2.2498436 1.4064941 -6.8123436 1.4069977q-7.53125 8.31604E-4 -11.250412 -3.686264q-3.71916 -3.687088 -3.7198887 -10.233963q-2.2125244E-4 -1.984375 0.1559124 -3.0312653q0.20291519 -1.8750229 0.4527359 -3.4844284q0.2498188 -1.6250229 0.3746662 -3.0000381l0.6244354 -5.0625687q0.06246376 -0.32813263 0.06239319 -0.9531326q-1.7929077E-4 -1.625 -1.0158844 -2.3436432q-1.0000801 -0.71863556 -3.71883 -0.718338q-2.609375 2.89917E-4 -3.9533348 -1.8745651q-1.3439589 -1.874855 -1.0786057 -4.312378q0.6400757 -4.9375725 5.6557007 -4.9381256q3.359375 -3.7002563E-4 4.8592587 -1.047409q1.4998817 -1.047039 1.8901901 -3.890831q0.07808876 -0.32813644 1.0459671 -8.156368l0.42146492 -3.6719208q0.9054947 -6.781349 5.389494 -10.156841q4.484001 -3.375492 11.624626 -3.376278z" fill-rule="nonzero"/><path fill="#4eb7c9" d="m113.72038 62.50295q2.609375 -2.861023E-4 3.953331 1.8745613q1.343956 1.874855 1.0786057 4.3123856q-0.6400757 4.9375687 -5.6557007 4.938118q-3.359375 3.7384033E-4 -4.8592606 1.047409q-1.4998779 1.0470428 -1.8901978 3.8127136q-0.42152405 3.1719208 -1.3269348 10.718895l-0.40587616 3.3437958q-0.9211197 6.765724 -5.405121 10.14122q-4.4839935 3.3911133 -11.624619 3.391899q-4.1875 4.5776367E-4 -6.3126373 -1.2024307q-2.1251297 -1.2028885 -2.1255112 -4.6091385q-2.2888184E-4 -2.0625 1.6089935 -3.4064255q1.5935974 -1.3595505 4.1248474 -1.3598328q3.171875 -3.5095215E-4 4.7499466 -0.5317688q1.578064 -0.5470505 2.2185745 -1.5627441q0.64051056 -1.0313263 0.8121643 -3.0313416q0.28079987 -4.0000305 1.3424988 -11.23452l0.26535797 -2.3437805q0.9523163 -7.265732 4.827133 -8.906784q-2.343872 -1.0934906 -2.3446274 -7.9059906q-8.392334E-5 -0.75 0.15596771 -2.515644q0.49958038 -3.7813034 0.5776825 -4.000061q0.5308533 -3.562561 0.7337265 -5.796955q0.062454224 -0.40625763 0.0623703 -1.1406326q-2.2888184E-4 -2.078125 -1.1721878 -2.8436203q-1.1563416 -0.7811241 -5.0157166 -0.7807007q-2.484375 2.746582E-4 -4.1095276 -1.421421q-1.6251602 -1.4373245 -1.6254044 -3.6091995q-3.2806396E-4 -2.953125 2.2495193 -4.343994q2.2498398 -1.390873 6.81234 -1.3913765q7.515625 -8.239746E-4 11.234787 3.686264q3.719162 3.6714668 3.7198868 10.218342q2.2125244E-4 1.984375 -0.1559143 3.015644q-0.14046478 1.4375153 -0.6244278 5.1406937q-0.062431335 0.6093788 -0.54639435 4.281307q-0.062469482 0.31250763 -0.06239319 0.9531326q1.7547607E-4 1.609375 1.0002594 2.3436394q1.0157089 0.7186394 3.734459 0.7183418z" fill-rule="nonzero"/><path fill="#000000" fill-opacity="0.0" d="m37.164818 17.879755l50.09577 -0.005508423l0.0095825195 86.028244l-50.095768 0.005508423z" fill-rule="evenodd"/><path fill="#4eb7c9" d="m61.45027 55.602707q-2.734375 3.0136108E-4 -5.1717987 0.6880722q-2.4374237 0.687767 -5.390377 2.2037163l-3.2040825 -8.593399q2.9685364 -1.8909492 6.999672 -2.9226418q4.0311356 -1.0316963 7.9061356 -1.0321198q4.859375 -5.340576E-4 8.01577 1.2959938q3.156395 1.2965279 4.969116 3.2807007q1.8283463 1.9685516 2.5473557 4.3278465q0.7346344 2.34367 0.7348709 4.46867q2.4414062E-4 2.140625 -0.6558075 3.9219475q-0.64042664 1.7813187 -1.6402588 3.3126755q-0.98420715 1.5157394 -2.2809296 2.8908768q-1.2810974 1.35952 -2.49971 2.5783997q-0.9061508 0.9063492 -1.9060364 1.9377136q-0.98426056 1.0157318 -1.7810059 2.1564484q-0.7967529 1.1407089 -1.327858 2.406395q-0.5311127 1.2500534 -0.5309677 2.5469284q3.0517578E-5 0.296875 9.918213E-5 0.90625q6.866455E-5 0.609375 0.07824707 1.0624924l-10.031254 0.0011062622q-0.15633392 -0.76560974 -0.20331192 -1.7031021q-0.03135681 -0.953125 -0.031433105 -1.640625q-2.3651123E-4 -2.125 0.53082275 -3.828186q0.53105927 -1.7188034 1.4058914 -3.2032776q0.87483597 -1.4844666 2.0153198 -2.7658463q1.14048 -1.2969971 2.3590927 -2.5158844q1.7498093 -1.7501907 3.1871185 -3.453476q1.4529343 -1.7189064 1.4526825 -3.9220314q-1.9836426E-4 -1.8125 -1.4065933 -3.1092224q-1.406395 -1.2967186 -4.14077 -1.296421zm7.066757 38.233597q3.7384033E-4 3.34375 -2.1712952 5.172119q-2.1560516 1.8127365 -4.890423 1.813034q-2.734375 3.0517578E-4 -4.906452 -1.8119583q-2.172081 -1.8278885 -2.172451 -5.1716385q-3.7384033E-4 -3.34375 2.171299 -5.1721115q2.171669 -1.8283615 4.906044 -1.8286667q2.734375 -2.975464E-4 4.890831 1.827591q2.172081 1.8278809 2.1724472 5.171631z" fill-rule="nonzero"/></g></svg>